# Blender v2.91.0 OBJ File: 'MissileHolder.blend'
# www.blender.org
mtllib MissileHolder.mtl
o Cube.001
v 1.987283 2.914522 5.388015
v 1.987283 0.914522 5.388015
v -0.012717 2.914522 5.388015
v -0.012717 0.914522 5.388015
v 1.872408 2.799647 -5.388015
v 1.872408 1.029397 -5.388015
v 0.102158 2.799647 -5.388015
v 0.102158 1.029397 -5.388015
v 1.864830 2.792068 5.388015
v 1.864830 1.036976 5.388015
v 0.109737 2.792068 5.388015
v 0.109737 1.036976 5.388015
v 1.987283 2.914522 5.388015
v 1.987283 0.914522 5.388015
v -0.012717 2.914522 5.388015
v -0.012717 0.914522 5.388015
v 1.864830 2.792068 5.192341
v 1.864830 1.036976 5.192341
v 0.109737 2.792068 5.192341
v 0.109737 1.036976 5.192341
v 1.987283 0.914522 -5.388015
v -0.012717 0.914522 -5.388015
v -0.012717 2.914522 -5.388015
v 1.987283 2.914522 -5.388015
v 1.872408 1.029397 -5.219333
v 0.102158 1.029397 -5.219333
v 0.102158 2.799647 -5.219333
v 1.872408 2.799647 -5.219333
vt 0.625000 0.500000
vt 0.875000 0.500000
vt 0.875000 0.750000
vt 0.625000 0.750000
vt 0.375000 0.750000
vt 0.625000 1.000000
vt 0.375000 1.000000
vt 0.610641 0.235641
vt 0.389359 0.235641
vt 0.389359 0.235641
vt 0.610641 0.235641
vt 0.125000 0.500000
vt 0.375000 0.500000
vt 0.125000 0.750000
vt nan nan
vt nan nan
vt nan nan
vt nan nan
vt 0.375000 0.250000
vt 0.625000 0.250000
vt 0.609693 0.515307
vt 0.609693 0.734693
vt 0.609693 0.734693
vt 0.609693 0.515307
vt 0.375000 0.500000
vt 0.375000 0.750000
vt 0.625000 0.750000
vt 0.625000 0.500000
vt nan nan
vt nan nan
vt nan nan
vt nan nan
vt 0.390307 0.515307
vt 0.390307 0.734693
vt 0.390307 0.515307
vt 0.390307 0.734693
vt 0.389359 0.014359
vt 0.375000 0.000000
vt 0.610641 0.014359
vt 0.625000 0.000000
vt 0.389359 0.014359
vt 0.610641 0.014359
vn 0.0000 1.0000 0.0000
vn -1.0000 0.0000 0.0000
vn 0.0000 -1.0000 0.0000
vn 0.0000 0.0000 1.0000
vn 1.0000 0.0000 0.0000
vn 0.0000 0.0000 -1.0000
usemtl Material.001
s off
f 1/1/1 24/2/1 23/3/1 3/4/1
f 4/5/2 3/4/2 23/6/2 22/7/2
f 5/8/2 6/9/2 25/10/2 28/11/2
f 21/12/3 2/13/3 4/5/3 22/14/3
f 2/15/4 1/16/4 13/17/4 14/18/4
f 21/19/5 24/20/5 1/1/5 2/13/5
f 9/21/3 11/22/3 19/23/3 17/24/3
f 4/5/4 2/13/4 14/25/4 16/26/4
f 1/1/4 3/4/4 15/27/4 13/28/4
f 3/29/4 4/30/4 16/31/4 15/32/4
f 9/21/4 10/33/4 14/25/4 13/28/4
f 12/34/4 11/22/4 15/27/4 16/26/4
f 11/22/4 9/21/4 13/28/4 15/27/4
f 10/33/4 12/34/4 16/26/4 14/25/4
f 18/35/4 17/24/4 19/23/4 20/36/4
f 10/33/2 9/21/2 17/24/2 18/35/2
f 12/34/1 10/33/1 18/35/1 20/36/1
f 11/22/5 12/34/5 20/36/5 19/23/5
f 8/37/6 6/9/6 21/19/6 22/38/6
f 7/39/6 8/37/6 22/38/6 23/40/6
f 6/9/6 5/8/6 24/20/6 21/19/6
f 5/8/6 7/39/6 23/40/6 24/20/6
f 26/41/6 27/42/6 28/11/6 25/10/6
f 6/9/1 8/37/1 26/41/1 25/10/1
f 7/39/3 5/8/3 28/11/3 27/42/3
f 8/37/5 7/39/5 27/42/5 26/41/5
o Cube.004
v -2.391613 -1.366585 1.414238
v -2.391613 3.041052 1.414238
v 2.137614 -1.366585 1.414238
v 2.137614 3.041052 1.414238
v -2.391613 -1.366585 1.585762
v -2.391613 3.041052 1.585762
v 2.137614 -1.366585 1.585762
v 2.137614 3.041052 1.585762
vt 0.375000 0.000000
vt 0.625000 0.000000
vt 0.625000 0.250000
vt 0.375000 0.250000
vt 0.625000 0.500000
vt 0.375000 0.500000
vt 0.625000 0.750000
vt 0.375000 0.750000
vt 0.625000 1.000000
vt 0.375000 1.000000
vt 0.125000 0.500000
vt 0.125000 0.750000
vt 0.875000 0.500000
vt 0.875000 0.750000
vn 0.0000 0.0000 -1.0000
vn 1.0000 0.0000 0.0000
vn 0.0000 0.0000 1.0000
vn -1.0000 0.0000 0.0000
vn 0.0000 -1.0000 0.0000
vn 0.0000 1.0000 0.0000
usemtl None
s off
f 29/43/7 30/44/7 32/45/7 31/46/7
f 31/46/8 32/45/8 36/47/8 35/48/8
f 35/48/9 36/47/9 34/49/9 33/50/9
f 33/50/10 34/49/10 30/51/10 29/52/10
f 31/53/11 35/48/11 33/50/11 29/54/11
f 36/47/12 32/55/12 30/56/12 34/49/12
o Cube.005
v -2.391613 -1.366585 -3.085762
v -2.391613 3.041052 -3.085762
v 2.137614 -1.366585 -3.085762
v 2.137614 3.041052 -3.085762
v -2.391613 -1.366585 -2.914238
v -2.391613 3.041052 -2.914238
v 2.137614 -1.366585 -2.914238
v 2.137614 3.041052 -2.914238
vt 0.375000 0.000000
vt 0.625000 0.000000
vt 0.625000 0.250000
vt 0.375000 0.250000
vt 0.625000 0.500000
vt 0.375000 0.500000
vt 0.625000 0.750000
vt 0.375000 0.750000
vt 0.625000 1.000000
vt 0.375000 1.000000
vt 0.125000 0.500000
vt 0.125000 0.750000
vt 0.875000 0.500000
vt 0.875000 0.750000
vn 0.0000 0.0000 -1.0000
vn 1.0000 0.0000 0.0000
vn 0.0000 0.0000 1.0000
vn -1.0000 0.0000 0.0000
vn 0.0000 -1.0000 0.0000
vn 0.0000 1.0000 0.0000
usemtl None
s off
f 37/57/13 38/58/13 40/59/13 39/60/13
f 39/60/14 40/59/14 44/61/14 43/62/14
f 43/62/15 44/61/15 42/63/15 41/64/15
f 41/64/16 42/63/16 38/65/16 37/66/16
f 39/67/17 43/62/17 41/64/17 37/68/17
f 44/61/18 40/69/18 38/70/18 42/63/18
o Cube.006
v -2.391613 -1.366585 2.914238
v -2.391613 3.041052 2.914238
v 2.137614 -1.366585 2.914238
v 2.137614 3.041052 2.914238
v -2.391613 -1.366585 3.085762
v -2.391613 3.041052 3.085762
v 2.137614 -1.366585 3.085762
v 2.137614 3.041052 3.085762
vt 0.375000 0.000000
vt 0.625000 0.000000
vt 0.625000 0.250000
vt 0.375000 0.250000
vt 0.625000 0.500000
vt 0.375000 0.500000
vt 0.625000 0.750000
vt 0.375000 0.750000
vt 0.625000 1.000000
vt 0.375000 1.000000
vt 0.125000 0.500000
vt 0.125000 0.750000
vt 0.875000 0.500000
vt 0.875000 0.750000
vn 0.0000 0.0000 -1.0000
vn 1.0000 0.0000 0.0000
vn 0.0000 0.0000 1.0000
vn -1.0000 0.0000 0.0000
vn 0.0000 -1.0000 0.0000
vn 0.0000 1.0000 0.0000
usemtl None
s off
f 45/71/19 46/72/19 48/73/19 47/74/19
f 47/74/20 48/73/20 52/75/20 51/76/20
f 51/76/21 52/75/21 50/77/21 49/78/21
f 49/78/22 50/77/22 46/79/22 45/80/22
f 47/81/23 51/76/23 49/78/23 45/82/23
f 52/75/24 48/83/24 46/84/24 50/77/24
o Cube.007
v -2.391613 -1.366585 4.414238
v -2.391613 3.041052 4.414238
v 2.137614 -1.366585 4.414238
v 2.137614 3.041052 4.414238
v -2.391613 -1.366585 4.585762
v -2.391613 3.041052 4.585762
v 2.137614 -1.366585 4.585762
v 2.137614 3.041052 4.585762
vt 0.375000 0.000000
vt 0.625000 0.000000
vt 0.625000 0.250000
vt 0.375000 0.250000
vt 0.625000 0.500000
vt 0.375000 0.500000
vt 0.625000 0.750000
vt 0.375000 0.750000
vt 0.625000 1.000000
vt 0.375000 1.000000
vt 0.125000 0.500000
vt 0.125000 0.750000
vt 0.875000 0.500000
vt 0.875000 0.750000
vn 0.0000 0.0000 -1.0000
vn 1.0000 0.0000 0.0000
vn 0.0000 0.0000 1.0000
vn -1.0000 0.0000 0.0000
vn 0.0000 -1.0000 0.0000
vn 0.0000 1.0000 0.0000
usemtl None
s off
f 53/85/25 54/86/25 56/87/25 55/88/25
f 55/88/26 56/87/26 60/89/26 59/90/26
f 59/90/27 60/89/27 58/91/27 57/92/27
f 57/92/28 58/91/28 54/93/28 53/94/28
f 55/95/29 59/90/29 57/92/29 53/96/29
f 60/89/30 56/97/30 54/98/30 58/91/30
o Cube.008
v -2.391613 -1.366585 -0.085762
v -2.391613 3.041052 -0.085762
v 2.137614 -1.366585 -0.085762
v 2.137614 3.041052 -0.085762
v -2.391613 -1.366585 0.085762
v -2.391613 3.041052 0.085762
v 2.137614 -1.366585 0.085762
v 2.137614 3.041052 0.085762
vt 0.375000 0.000000
vt 0.625000 0.000000
vt 0.625000 0.250000
vt 0.375000 0.250000
vt 0.625000 0.500000
vt 0.375000 0.500000
vt 0.625000 0.750000
vt 0.375000 0.750000
vt 0.625000 1.000000
vt 0.375000 1.000000
vt 0.125000 0.500000
vt 0.125000 0.750000
vt 0.875000 0.500000
vt 0.875000 0.750000
vn 0.0000 0.0000 -1.0000
vn 1.0000 0.0000 0.0000
vn 0.0000 0.0000 1.0000
vn -1.0000 0.0000 0.0000
vn 0.0000 -1.0000 0.0000
vn 0.0000 1.0000 0.0000
usemtl None
s off
f 61/99/31 62/100/31 64/101/31 63/102/31
f 63/102/32 64/101/32 68/103/32 67/104/32
f 67/104/33 68/103/33 66/105/33 65/106/33
f 65/106/34 66/105/34 62/107/34 61/108/34
f 63/109/35 67/104/35 65/106/35 61/110/35
f 68/103/36 64/111/36 62/112/36 66/105/36
o Cube.009
v -2.391613 -1.366585 -4.585762
v -2.391613 3.041052 -4.585762
v 2.137614 -1.366585 -4.585762
v 2.137614 3.041052 -4.585762
v -2.391613 -1.366585 -4.414238
v -2.391613 3.041052 -4.414238
v 2.137614 -1.366585 -4.414238
v 2.137614 3.041052 -4.414238
vt 0.375000 0.000000
vt 0.625000 0.000000
vt 0.625000 0.250000
vt 0.375000 0.250000
vt 0.625000 0.500000
vt 0.375000 0.500000
vt 0.625000 0.750000
vt 0.375000 0.750000
vt 0.625000 1.000000
vt 0.375000 1.000000
vt 0.125000 0.500000
vt 0.125000 0.750000
vt 0.875000 0.500000
vt 0.875000 0.750000
vn 0.0000 0.0000 -1.0000
vn 1.0000 0.0000 0.0000
vn 0.0000 0.0000 1.0000
vn -1.0000 0.0000 0.0000
vn 0.0000 -1.0000 0.0000
vn 0.0000 1.0000 0.0000
usemtl None
s off
f 69/113/37 70/114/37 72/115/37 71/116/37
f 71/116/38 72/115/38 76/117/38 75/118/38
f 75/118/39 76/117/39 74/119/39 73/120/39
f 73/120/40 74/119/40 70/121/40 69/122/40
f 71/123/41 75/118/41 73/120/41 69/124/41
f 76/117/42 72/125/42 70/126/42 74/119/42
o Cube.010
v -2.391613 -1.366585 -1.585762
v -2.391613 3.041052 -1.585762
v 2.137614 -1.366585 -1.585762
v 2.137614 3.041052 -1.585762
v -2.391613 -1.366585 -1.414238
v -2.391613 3.041052 -1.414238
v 2.137614 -1.366585 -1.414238
v 2.137614 3.041052 -1.414238
vt 0.375000 0.000000
vt 0.625000 0.000000
vt 0.625000 0.250000
vt 0.375000 0.250000
vt 0.625000 0.500000
vt 0.375000 0.500000
vt 0.625000 0.750000
vt 0.375000 0.750000
vt 0.625000 1.000000
vt 0.375000 1.000000
vt 0.125000 0.500000
vt 0.125000 0.750000
vt 0.875000 0.500000
vt 0.875000 0.750000
vn 0.0000 0.0000 -1.0000
vn 1.0000 0.0000 0.0000
vn 0.0000 0.0000 1.0000
vn -1.0000 0.0000 0.0000
vn 0.0000 -1.0000 0.0000
vn 0.0000 1.0000 0.0000
usemtl None
s off
f 77/127/43 78/128/43 80/129/43 79/130/43
f 79/130/44 80/129/44 84/131/44 83/132/44
f 83/132/45 84/131/45 82/133/45 81/134/45
f 81/134/46 82/133/46 78/135/46 77/136/46
f 79/137/47 83/132/47 81/134/47 77/138/47
f 84/131/48 80/139/48 78/140/48 82/133/48
o Cube.002_Cube.011
v -0.218076 2.914522 5.388015
v -0.218076 0.914522 5.388015
v -2.218076 2.914522 5.388015
v -2.218076 0.914522 5.388015
v -0.332951 2.799647 -5.388015
v -0.332951 1.029397 -5.388015
v -2.103201 2.799647 -5.388015
v -2.103201 1.029397 -5.388015
v -0.340529 2.792068 5.388015
v -0.340529 1.036976 5.388015
v -2.095622 2.792068 5.388015
v -2.095622 1.036976 5.388015
v -0.218076 2.914522 5.388015
v -0.218076 0.914522 5.388015
v -2.218076 2.914522 5.388015
v -2.218076 0.914522 5.388015
v -0.340529 2.792068 5.192341
v -0.340529 1.036976 5.192341
v -2.095622 2.792068 5.192341
v -2.095622 1.036976 5.192341
v -0.218076 0.914522 -5.388015
v -2.218076 0.914522 -5.388015
v -2.218076 2.914522 -5.388015
v -0.218076 2.914522 -5.388015
v -0.332951 1.029397 -5.219333
v -2.103201 1.029397 -5.219333
v -2.103201 2.799647 -5.219333
v -0.332951 2.799647 -5.219333
vt 0.625000 0.500000
vt 0.875000 0.500000
vt 0.875000 0.750000
vt 0.625000 0.750000
vt 0.375000 0.750000
vt 0.625000 1.000000
vt 0.375000 1.000000
vt 0.610641 0.235641
vt 0.389359 0.235641
vt 0.389359 0.235641
vt 0.610641 0.235641
vt 0.125000 0.500000
vt 0.375000 0.500000
vt 0.125000 0.750000
vt nan nan
vt nan nan
vt nan nan
vt nan nan
vt 0.375000 0.250000
vt 0.625000 0.250000
vt 0.609693 0.515307
vt 0.609693 0.734693
vt 0.609693 0.734693
vt 0.609693 0.515307
vt 0.375000 0.500000
vt 0.375000 0.750000
vt 0.625000 0.750000
vt 0.625000 0.500000
vt nan nan
vt nan nan
vt nan nan
vt nan nan
vt 0.390307 0.515307
vt 0.390307 0.734693
vt 0.390307 0.515307
vt 0.390307 0.734693
vt 0.389359 0.014359
vt 0.375000 0.000000
vt 0.610641 0.014359
vt 0.625000 0.000000
vt 0.389359 0.014359
vt 0.610641 0.014359
vn 0.0000 1.0000 0.0000
vn -1.0000 0.0000 0.0000
vn 0.0000 -1.0000 0.0000
vn 0.0000 0.0000 1.0000
vn 1.0000 0.0000 0.0000
vn 0.0000 0.0000 -1.0000
usemtl Material.004
s off
f 85/141/49 108/142/49 107/143/49 87/144/49
f 88/145/50 87/144/50 107/146/50 106/147/50
f 89/148/50 90/149/50 109/150/50 112/151/50
f 105/152/51 86/153/51 88/145/51 106/154/51
f 86/155/52 85/156/52 97/157/52 98/158/52
f 105/159/53 108/160/53 85/141/53 86/153/53
f 93/161/51 95/162/51 103/163/51 101/164/51
f 88/145/52 86/153/52 98/165/52 100/166/52
f 85/141/52 87/144/52 99/167/52 97/168/52
f 87/169/52 88/170/52 100/171/52 99/172/52
f 93/161/52 94/173/52 98/165/52 97/168/52
f 96/174/52 95/162/52 99/167/52 100/166/52
f 95/162/52 93/161/52 97/168/52 99/167/52
f 94/173/52 96/174/52 100/166/52 98/165/52
f 102/175/52 101/164/52 103/163/52 104/176/52
f 94/173/50 93/161/50 101/164/50 102/175/50
f 96/174/49 94/173/49 102/175/49 104/176/49
f 95/162/53 96/174/53 104/176/53 103/163/53
f 92/177/54 90/149/54 105/159/54 106/178/54
f 91/179/54 92/177/54 106/178/54 107/180/54
f 90/149/54 89/148/54 108/160/54 105/159/54
f 89/148/54 91/179/54 107/180/54 108/160/54
f 110/181/54 111/182/54 112/151/54 109/150/54
f 90/149/49 92/177/49 110/181/49 109/150/49
f 91/179/51 89/148/51 112/151/51 111/182/51
f 92/177/53 91/179/53 111/182/53 110/181/53
o Cube.011_Cube.013
v 1.987283 0.786878 5.388015
v 1.987283 -1.213122 5.388015
v -0.012717 0.786878 5.388015
v -0.012717 -1.213122 5.388015
v 1.872408 0.672003 -5.388015
v 1.872408 -1.098247 -5.388015
v 0.102158 0.672003 -5.388015
v 0.102158 -1.098247 -5.388015
v 1.864830 0.664424 5.388015
v 1.864830 -1.090669 5.388015
v 0.109737 0.664424 5.388015
v 0.109737 -1.090669 5.388015
v 1.987283 0.786878 5.388015
v 1.987283 -1.213122 5.388015
v -0.012717 0.786878 5.388015
v -0.012717 -1.213122 5.388015
v 1.864830 0.664424 5.192341
v 1.864830 -1.090669 5.192341
v 0.109737 0.664424 5.192341
v 0.109737 -1.090669 5.192341
v 1.987283 -1.213122 -5.388015
v -0.012717 -1.213122 -5.388015
v -0.012717 0.786878 -5.388015
v 1.987283 0.786878 -5.388015
v 1.872408 -1.098247 -5.219333
v 0.102158 -1.098247 -5.219333
v 0.102158 0.672003 -5.219333
v 1.872408 0.672003 -5.219333
vt 0.625000 0.500000
vt 0.875000 0.500000
vt 0.875000 0.750000
vt 0.625000 0.750000
vt 0.375000 0.750000
vt 0.625000 1.000000
vt 0.375000 1.000000
vt 0.610641 0.235641
vt 0.389359 0.235641
vt 0.389359 0.235641
vt 0.610641 0.235641
vt 0.125000 0.500000
vt 0.375000 0.500000
vt 0.125000 0.750000
vt nan nan
vt nan nan
vt nan nan
vt nan nan
vt 0.375000 0.250000
vt 0.625000 0.250000
vt 0.609693 0.515307
vt 0.609693 0.734693
vt 0.609693 0.734693
vt 0.609693 0.515307
vt 0.375000 0.500000
vt 0.375000 0.750000
vt 0.625000 0.750000
vt 0.625000 0.500000
vt nan nan
vt nan nan
vt nan nan
vt nan nan
vt 0.390307 0.515307
vt 0.390307 0.734693
vt 0.390307 0.515307
vt 0.390307 0.734693
vt 0.389359 0.014359
vt 0.375000 0.000000
vt 0.610641 0.014359
vt 0.625000 0.000000
vt 0.389359 0.014359
vt 0.610641 0.014359
vn 0.0000 1.0000 0.0000
vn -1.0000 0.0000 0.0000
vn 0.0000 -1.0000 0.0000
vn 0.0000 0.0000 1.0000
vn 1.0000 0.0000 0.0000
vn 0.0000 0.0000 -1.0000
usemtl Material.006
s off
f 113/183/55 136/184/55 135/185/55 115/186/55
f 116/187/56 115/186/56 135/188/56 134/189/56
f 117/190/56 118/191/56 137/192/56 140/193/56
f 133/194/57 114/195/57 116/187/57 134/196/57
f 114/197/58 113/198/58 125/199/58 126/200/58
f 133/201/59 136/202/59 113/183/59 114/195/59
f 121/203/57 123/204/57 131/205/57 129/206/57
f 116/187/58 114/195/58 126/207/58 128/208/58
f 113/183/58 115/186/58 127/209/58 125/210/58
f 115/211/58 116/212/58 128/213/58 127/214/58
f 121/203/58 122/215/58 126/207/58 125/210/58
f 124/216/58 123/204/58 127/209/58 128/208/58
f 123/204/58 121/203/58 125/210/58 127/209/58
f 122/215/58 124/216/58 128/208/58 126/207/58
f 130/217/58 129/206/58 131/205/58 132/218/58
f 122/215/56 121/203/56 129/206/56 130/217/56
f 124/216/55 122/215/55 130/217/55 132/218/55
f 123/204/59 124/216/59 132/218/59 131/205/59
f 120/219/60 118/191/60 133/201/60 134/220/60
f 119/221/60 120/219/60 134/220/60 135/222/60
f 118/191/60 117/190/60 136/202/60 133/201/60
f 117/190/60 119/221/60 135/222/60 136/202/60
f 138/223/60 139/224/60 140/193/60 137/192/60
f 118/191/55 120/219/55 138/223/55 137/192/55
f 119/221/57 117/190/57 140/193/57 139/224/57
f 120/219/59 119/221/59 139/224/59 138/223/59
o Cube.003_Cube.012
v -0.218076 0.786878 5.388015
v -0.218076 -1.213122 5.388015
v -2.218076 0.786878 5.388015
v -2.218076 -1.213122 5.388015
v -0.332951 0.672003 -5.388015
v -0.332951 -1.098247 -5.388015
v -2.103201 0.672003 -5.388015
v -2.103201 -1.098247 -5.388015
v -0.340529 0.664424 5.388015
v -0.340529 -1.090669 5.388015
v -2.095622 0.664424 5.388015
v -2.095622 -1.090669 5.388015
v -0.218076 0.786878 5.388015
v -0.218076 -1.213122 5.388015
v -2.218076 0.786878 5.388015
v -2.218076 -1.213122 5.388015
v -0.340529 0.664424 5.192341
v -0.340529 -1.090669 5.192341
v -2.095622 0.664424 5.192341
v -2.095622 -1.090669 5.192341
v -0.218076 -1.213122 -5.388015
v -2.218076 -1.213122 -5.388015
v -2.218076 0.786878 -5.388015
v -0.218076 0.786878 -5.388015
v -0.332951 -1.098247 -5.219333
v -2.103201 -1.098247 -5.219333
v -2.103201 0.672003 -5.219333
v -0.332951 0.672003 -5.219333
vt 0.625000 0.500000
vt 0.875000 0.500000
vt 0.875000 0.750000
vt 0.625000 0.750000
vt 0.375000 0.750000
vt 0.625000 1.000000
vt 0.375000 1.000000
vt 0.610641 0.235641
vt 0.389359 0.235641
vt 0.389359 0.235641
vt 0.610641 0.235641
vt 0.125000 0.500000
vt 0.375000 0.500000
vt 0.125000 0.750000
vt nan nan
vt nan nan
vt nan nan
vt nan nan
vt 0.375000 0.250000
vt 0.625000 0.250000
vt 0.609693 0.515307
vt 0.609693 0.734693
vt 0.609693 0.734693
vt 0.609693 0.515307
vt 0.375000 0.500000
vt 0.375000 0.750000
vt 0.625000 0.750000
vt 0.625000 0.500000
vt nan nan
vt nan nan
vt nan nan
vt nan nan
vt 0.390307 0.515307
vt 0.390307 0.734693
vt 0.390307 0.515307
vt 0.390307 0.734693
vt 0.389359 0.014359
vt 0.375000 0.000000
vt 0.610641 0.014359
vt 0.625000 0.000000
vt 0.389359 0.014359
vt 0.610641 0.014359
vn 0.0000 1.0000 0.0000
vn -1.0000 0.0000 0.0000
vn 0.0000 -1.0000 0.0000
vn 0.0000 0.0000 1.0000
vn 1.0000 0.0000 0.0000
vn 0.0000 0.0000 -1.0000
usemtl Material.005
s off
f 141/225/61 164/226/61 163/227/61 143/228/61
f 144/229/62 143/228/62 163/230/62 162/231/62
f 145/232/62 146/233/62 165/234/62 168/235/62
f 161/236/63 142/237/63 144/229/63 162/238/63
f 142/239/64 141/240/64 153/241/64 154/242/64
f 161/243/65 164/244/65 141/225/65 142/237/65
f 149/245/63 151/246/63 159/247/63 157/248/63
f 144/229/64 142/237/64 154/249/64 156/250/64
f 141/225/64 143/228/64 155/251/64 153/252/64
f 143/253/64 144/254/64 156/255/64 155/256/64
f 149/245/64 150/257/64 154/249/64 153/252/64
f 152/258/64 151/246/64 155/251/64 156/250/64
f 151/246/64 149/245/64 153/252/64 155/251/64
f 150/257/64 152/258/64 156/250/64 154/249/64
f 158/259/64 157/248/64 159/247/64 160/260/64
f 150/257/62 149/245/62 157/248/62 158/259/62
f 152/258/61 150/257/61 158/259/61 160/260/61
f 151/246/65 152/258/65 160/260/65 159/247/65
f 148/261/66 146/233/66 161/243/66 162/262/66
f 147/263/66 148/261/66 162/262/66 163/264/66
f 146/233/66 145/232/66 164/244/66 161/243/66
f 145/232/66 147/263/66 163/264/66 164/244/66
f 166/265/66 167/266/66 168/235/66 165/234/66
f 146/233/61 148/261/61 166/265/61 165/234/61
f 147/263/63 145/232/63 168/235/63 167/266/63
f 148/261/65 147/263/65 167/266/65 166/265/65
